<?xml version="1.0" encoding="UTF-8" standalone="no"?>
<!DOCTYPE svg PUBLIC "-//W3C//DTD SVG 1.1//EN" "http://www.w3.org/Graphics/SVG/1.1/DTD/svg11.dtd">
<svg width="100%" height="100%" viewBox="0 0 1061 253" version="1.1" xmlns="http://www.w3.org/2000/svg" xmlns:xlink="http://www.w3.org/1999/xlink" xml:space="preserve" xmlns:serif="http://www.serif.com/" style="fill-rule:evenodd;clip-rule:evenodd;stroke-linejoin:round;stroke-miterlimit:2;">
    <g transform="matrix(1,0,0,1,-271,-1443)">
        <g transform="matrix(6.69762,0,0,6.69762,0.00142074,0.000972297)">
            <g id="xt_app_icon" transform="matrix(0.676483,0,0,0.676483,40.5174,129.691)">
                <g transform="matrix(0.149307,0,0,0.149307,-653.047,-29.1861)">
                    <path d="M5940.91,1047.05L5940.91,1048.26L5856.67,1125.74L5823.39,1125.74L5856.67,1125.74L5832.17,1148.26L5815.53,1148.26L5810,1142.25L5815.53,1148.26L5723.87,1148.26L5723.87,1417.65L5569.22,1417.65L5569.22,1395.12L5583.51,1395.12L5583.51,1148.26L5478.51,1148.26L5478.51,1126.03L5531.65,1126.03C5546.35,1112.59 5562.41,1100.8 5579.32,1090.23C5595.83,1079.9 5602.32,1061.15 5617.05,1049.62L5621.75,1049.62L5621.75,1047.05L5940.91,1047.05ZM5605.74,1392.05C5608.25,1393.17 5611.11,1394.2 5614.25,1395.12L5605.74,1395.12L5605.74,1392.05ZM5701.63,1394.61L5701.63,1395.12L5700.41,1395.12C5700.82,1394.95 5701.23,1394.78 5701.63,1394.61ZM5826.96,1145.08C5827.54,1145.08 5828.12,1145.09 5828.69,1145.09L5828.57,1145.09C5828.03,1145.09 5827.5,1145.08 5826.96,1145.08ZM5830.39,1145.07C5830.33,1145.07 5830.28,1145.07 5830.23,1145.07C5830.28,1145.07 5830.33,1145.07 5830.39,1145.07ZM5831.15,1145.04L5831.12,1145.05L5831.15,1145.04L5831.21,1145.04L5831.15,1145.04ZM5831.39,1145.03L5831.34,1145.04L5831.39,1145.03ZM5831.64,1145.02L5831.58,1145.02L5831.52,1145.03C5831.56,1145.03 5831.6,1145.02 5831.64,1145.02ZM5822.99,1144.99C5823.03,1144.99 5823.07,1144.99 5823.12,1144.99C5823.08,1144.99 5823.03,1144.99 5822.99,1144.99ZM5821.26,1144.97C5821.34,1144.97 5821.41,1144.97 5821.49,1144.97C5821.37,1144.97 5821.26,1144.97 5821.14,1144.97L5821.26,1144.97ZM5820.77,1144.97L5820.89,1144.97C5820.82,1144.97 5820.75,1144.97 5820.68,1144.97L5820.77,1144.97ZM5832.67,1144.95C5832.62,1144.96 5832.58,1144.96 5832.53,1144.96C5832.6,1144.96 5832.66,1144.95 5832.73,1144.95L5832.67,1144.95ZM5833.53,1144.88C5833.34,1144.9 5833.15,1144.91 5832.96,1144.93C5833.15,1144.91 5833.34,1144.9 5833.53,1144.88ZM5834,1144.83L5833.97,1144.83C5834,1144.83 5834.03,1144.82 5834.06,1144.82L5834,1144.83ZM5834.24,1144.8L5834.18,1144.8L5834.12,1144.81L5834.18,1144.8C5834.2,1144.8 5834.22,1144.8 5834.24,1144.8ZM5834.36,1144.78L5834.42,1144.77C5834.4,1144.78 5834.38,1144.78 5834.36,1144.78L5834.3,1144.79C5834.32,1144.79 5834.34,1144.78 5834.36,1144.78ZM5835.19,1144.66L5835.14,1144.67L5835.19,1144.66L5835.25,1144.65L5835.19,1144.66Z" style="fill:rgb(52,151,250);"/>
                </g>
                <g transform="matrix(0.149307,0,0,0.149307,-653.047,-29.1861)">
                    <path d="M5047.86,1253.48L4821.11,1044.95L4820.49,1045.62L4820.49,1044.95L4643.86,1044.95L4643.86,1045.16C4606.52,1045.92 4569.31,1048.83 4532.4,1055.36C4437.34,1072.17 4379.47,1135.86 4374.11,1220.85C4369.3,1297.17 4433.24,1397.97 4545.32,1410.93C4592.41,1416.37 4639.6,1416.87 4686.82,1416.42L4822.81,1416.42L4824.26,1416.65L4823.57,1416.42L4834.4,1416.42L4834.4,1416.05L4835.17,1416.05L4835.17,1224.73L5043.86,1416.65L5043.86,1417.36L5157.49,1417.36L5157.49,1395.12L5087.07,1395.12C5091.98,1389.89 5097.27,1385.07 5102.77,1380.48L5161.49,1380.48L5161.49,1047.05L5047.86,1047.05L5047.86,1253.48ZM4710.22,1319C4708.3,1319.43 4706.05,1319.56 4703.45,1319.42C4700.06,1319.23 4696.66,1319.1 4693.26,1319L4661.75,1319C4639.77,1319.41 4617.76,1320.28 4595.79,1319L4574.86,1319L4574.86,1318.9C4528.12,1316.64 4490.86,1277.98 4490.86,1230.68C4490.86,1183.39 4528.12,1144.73 4574.86,1142.47L4574.86,1142.37L4724.82,1142.37L4724.82,1319L4710.22,1319Z" style="fill:#fff;"/>
                </g>
                <g>
                    <g transform="matrix(1,0,0,1,116.961,169.954)">
                        <path d="M0,-30.562C-3.652,-35.944 -10.103,-37.855 -14.533,-42.273C-6.435,-43.456 1.721,-42.013 9.832,-42.793C11.033,-42.908 12.198,-42.377 12.92,-41.412C16.616,-36.472 22.896,-34.265 26.125,-28.807C27.319,-26.79 28.817,-27.124 30.713,-28.401C35.721,-31.77 39.652,-36.286 44.008,-40.343C45.825,-42.035 47.6,-42.827 50.206,-42.69C56.347,-42.367 62.511,-42.485 68.656,-42.424C66.456,-40.703 65.487,-37.903 63.022,-36.362C59.437,-34.12 56.105,-31.511 53.25,-28.354C53.071,-28.096 52.891,-27.837 52.712,-27.578C49.093,-24.456 45.554,-21.234 41.823,-18.252C39.868,-16.689 39.929,-15.792 41.794,-14.136C48.89,-7.834 55.825,-1.352 62.821,5.063L65.458,7.531C68.056,8.145 68.453,11.116 70.541,12.276C62.093,12.189 53.632,12.894 45.198,11.885C39.915,6.683 34.625,1.489 29.354,-3.725C28.243,-4.824 27.113,-5.974 25.693,-4.284C20.643,1.73 13.804,5.901 8.909,12.069C2.052,12.207 -4.804,12.345 -11.66,12.482C-11.924,12.22 -12.189,11.959 -12.457,11.698C-10.052,7.913 -6.247,5.59 -2.856,2.901C-1.496,1.822 -0.746,0.603 0.041,-0.755C0.699,-1.25 1.357,-1.743 2.015,-2.236C2.349,-2.541 2.683,-2.846 3.018,-3.152C3.766,-3.832 4.514,-4.513 5.262,-5.193C8.255,-7.778 11.207,-10.413 14.256,-12.93C16.169,-14.508 16.846,-16.397 14.527,-17.698C9.539,-20.494 6.938,-25.821 2.168,-28.771C1.445,-29.368 0.723,-29.965 0,-30.562" style="fill:rgb(202,37,37);fill-rule:nonzero;"/>
                    </g>
                    <g transform="matrix(-0.102388,0.111335,-0.154975,-0.142521,367.07,249.054)">
                        <rect x="472.674" y="854.042" width="22.238" height="370.574" style="fill:rgb(202,37,37);"/>
                    </g>
                    <g transform="matrix(0.102388,0.111335,0.154975,-0.142521,-76.5045,249.054)">
                        <rect x="472.674" y="854.042" width="22.238" height="370.574" style="fill:rgb(202,37,37);"/>
                    </g>
                    <g transform="matrix(-0.102388,0.111335,-0.154975,-0.142521,344.704,249.054)">
                        <rect x="472.674" y="854.042" width="22.238" height="370.574" style="fill:rgb(202,37,37);"/>
                    </g>
                    <g transform="matrix(2.04984e-17,0.151258,-0.0711665,-2.9352e-17,189.58,55.6498)">
                        <path d="M494.911,852.775L472.673,852.775L472.674,1237.26L492.551,1191.1L494.911,852.775Z" style="fill:rgb(202,37,37);"/>
                    </g>
                    <g transform="matrix(-2.04984e-17,0.151258,0.0711665,-2.9352e-17,101.001,55.6498)">
                        <path d="M494.911,852.775L472.673,852.775L472.674,1237.26L492.551,1191.1L494.911,852.775Z" style="fill:rgb(202,37,37);"/>
                    </g>
                    <g transform="matrix(2.04984e-17,-0.151258,-0.0711665,2.9352e-17,189.58,253.975)">
                        <path d="M494.911,852.775L472.673,852.775L472.674,1237.26L492.551,1191.1L494.911,852.775Z" style="fill:rgb(202,37,37);"/>
                    </g>
                    <g transform="matrix(-2.04984e-17,-0.151258,0.0711665,2.9352e-17,101.001,253.975)">
                        <path d="M494.911,852.775L472.673,852.775L472.674,1237.26L492.551,1191.1L494.911,852.775Z" style="fill:rgb(202,37,37);"/>
                    </g>
                    <g transform="matrix(0.102388,0.111335,0.154975,-0.142521,-54.139,249.054)">
                        <rect x="472.674" y="854.042" width="22.238" height="370.574" style="fill:rgb(202,37,37);"/>
                    </g>
                </g>
            </g>
        </g>
    </g>
</svg>
