<svg xmlns="http://www.w3.org/2000/svg" viewBox="0 0 64 64"><defs><style>.a{fill:none;stroke:#fff;stroke-linecap:round;stroke-linejoin:round;stroke-width:2px;}.b{fill:#fff;}</style></defs><title>video</title><rect class="a" x="17" y="17.07" width="28" height="29.87" rx="2" ry="2"/><line class="a" x1="17" y1="22.67" x2="45" y2="22.67"/><line class="a" x1="22.6" y1="17.07" x2="22.6" y2="22.67"/><line class="a" x1="28.2" y1="17.07" x2="28.2" y2="22.67"/><line class="a" x1="33.8" y1="17.07" x2="33.8" y2="22.67"/><line class="a" x1="39.4" y1="17.07" x2="39.4" y2="22.67"/><line class="a" x1="17" y1="41.33" x2="45" y2="41.33"/><line class="a" x1="22.6" y1="41.33" x2="22.6" y2="46.93"/><line class="a" x1="28.2" y1="41.33" x2="28.2" y2="46.93"/><line class="a" x1="33.8" y1="41.33" x2="33.8" y2="46.93"/><line class="a" x1="39.4" y1="41.33" x2="39.4" y2="46.93"/><path class="b" d="M30.07,29.07a.9.9,0,0,1,.51.16l3,2a.92.92,0,0,1,0,1.54l-3,2a.9.9,0,0,1-.51.16.94.94,0,0,1-.94-.94V30a.94.94,0,0,1,.94-.94m0-2A2.94,2.94,0,0,0,27.13,30v4a2.94,2.94,0,0,0,2.94,2.94,2.87,2.87,0,0,0,1.62-.5l3-2a2.93,2.93,0,0,0,0-4.88l-3-2a2.87,2.87,0,0,0-1.62-.5Z"/></svg>