<svg xmlns="http://www.w3.org/2000/svg" viewBox="0 0 64 64"><defs><style>.a{fill:#3fa9f5;}.b{fill:none;stroke:#3fa9f5;stroke-linecap:round;stroke-linejoin:round;stroke-width:2px;}</style></defs><title>settings</title><path class="a" d="M32.69,18a.54.54,0,0,1,.52.38l.54,1.79a.55.55,0,0,0,.34.36l2.95.95a.45.45,0,0,0,.16,0,.57.57,0,0,0,.33-.11L39,20.27a.54.54,0,0,1,.32-.11.55.55,0,0,1,.32.1l1.12.82a.53.53,0,0,1,.19.61l-.62,1.77a.54.54,0,0,0,.07.49l1.82,2.5a.54.54,0,0,0,.44.22h0l1.87,0h0a.54.54,0,0,1,.51.37l.43,1.32a.54.54,0,0,1-.2.6L43.77,30a.53.53,0,0,0-.23.44v3.1a.53.53,0,0,0,.23.44L45.31,35a.54.54,0,0,1,.2.6L45.08,37a.54.54,0,0,1-.51.37h0l-1.87,0h0a.54.54,0,0,0-.44.22L40.42,40a.54.54,0,0,0-.07.49L41,42.27a.53.53,0,0,1-.19.61l-1.12.82a.63.63,0,0,1-.32.1.54.54,0,0,1-.32-.11l-1.49-1.13a.57.57,0,0,0-.33-.11l-.16,0-2.95,1a.55.55,0,0,0-.34.36l-.54,1.79a.55.55,0,0,1-.52.38H31.31a.55.55,0,0,1-.52-.38l-.54-1.79a.55.55,0,0,0-.34-.36l-2.95-1-.16,0a.57.57,0,0,0-.33.11L25,43.69a.54.54,0,0,1-.32.11.63.63,0,0,1-.32-.1l-1.12-.82a.53.53,0,0,1-.19-.61l.62-1.77a.54.54,0,0,0-.07-.49l-1.82-2.5a.54.54,0,0,0-.44-.22h0l-1.87,0h0a.54.54,0,0,1-.51-.37l-.43-1.32a.54.54,0,0,1,.2-.6L20.23,34a.53.53,0,0,0,.23-.44v-3.1a.53.53,0,0,0-.23-.44l-1.54-1.07a.54.54,0,0,1-.2-.6L18.92,27a.54.54,0,0,1,.51-.37h0l1.87,0h0a.54.54,0,0,0,.44-.22L23.58,24a.54.54,0,0,0,.07-.49L23,21.69a.53.53,0,0,1,.19-.61l1.12-.82a.55.55,0,0,1,.32-.1.54.54,0,0,1,.32.11l1.49,1.13a.57.57,0,0,0,.33.11.45.45,0,0,0,.16,0l2.95-.95a.55.55,0,0,0,.34-.36l.54-1.79a.54.54,0,0,1,.52-.38h1.38m0-2H31.31a2.52,2.52,0,0,0-2.43,1.8l-.32,1.06-1.49.49-.88-.67a2.5,2.5,0,0,0-1.53-.52,2.55,2.55,0,0,0-1.49.48l-1.12.82a2.52,2.52,0,0,0-.91,2.88l.37,1.05-.92,1.26-1.11,0h-.05A2.54,2.54,0,0,0,17,26.38l-.43,1.32a2.53,2.53,0,0,0,1,2.87l.91.63v1.56l-.91.63a2.53,2.53,0,0,0-1,2.87L17,37.58a2.54,2.54,0,0,0,2.41,1.75h.05l1.11,0,.92,1.27-.37,1a2.52,2.52,0,0,0,.91,2.88l1.12.81a2.51,2.51,0,0,0,3,0l.88-.67,1.49.49.32,1.06A2.53,2.53,0,0,0,31.31,48h1.38a2.53,2.53,0,0,0,2.43-1.8l.32-1.06,1.49-.49.88.67a2.51,2.51,0,0,0,3,0L42,44.5a2.52,2.52,0,0,0,.91-2.88l-.37-1,.92-1.27,1.11,0h0A2.54,2.54,0,0,0,47,37.58l.43-1.32a2.53,2.53,0,0,0-1-2.87l-.91-.63V31.2l.91-.63a2.53,2.53,0,0,0,1-2.87L47,26.38a2.54,2.54,0,0,0-2.41-1.75h0l-1.11,0-.92-1.26.37-1.05A2.52,2.52,0,0,0,42,19.46l-1.12-.82a2.55,2.55,0,0,0-1.49-.48,2.5,2.5,0,0,0-1.53.52l-.88.67-1.49-.49-.32-1.06A2.52,2.52,0,0,0,32.69,16Z"/><circle class="b" cx="32" cy="31.98" r="4"/></svg>